# xmcd
#
# Track frame offsets:
#	150
#	13857
#	28127
#	38185
#	49837
#	63917
#	76582
#	87175
#	97150
#	110552
#	121945
#	136017
#	145407
#	156442
#
# Disc length: 2262 seconds
#
# Revision: 0
# Processed by: cddbd v1.4PL0 Copyright (c) Steve Scherf et al.
# Submitted via: dBpowerAMP V4.0
#
DISCID=b908d40e
DTITLE=Charley Pride - greatest hits 
DYEAR=1991
DGENRE=country 
TTITLE0=All I Have To Offer You Is Me
TTITLE1=I'm So Afraid Of Losing You Again
TTITLE2=Is Anybody Going To San Antone
TTITLE3=Wonder Could I Live There Any More
TTITLE4=I Can't Beleive That You've Stopped Loving Me
TTITLE5=I'd Rather Love You
TTITLE6=I'm Just Me
TTITLE7=Kiss An Angel Goodmorning
TTITLE8=All His Chidren
TTITLE9=It's Gonna Take A Little Bit Longer
TTITLE10=A Shoulder To Cry On
TTITLE11=Don't Fight The Feelings Of Love
TTITLE12=Mississippi Cotton Picking Delta Town
TTITLE13=I Aint All Bad
EXTD=The Silver Collection.Woodford Music. 1991\nMarketed by Discy Communications.
EXTT0=
EXTT1=
EXTT2=
EXTT3=
EXTT4=
EXTT5=
EXTT6=
EXTT7=
EXTT8=
EXTT9=
EXTT10=
EXTT11=
EXTT12=
EXTT13=
PLAYORDER=
